nColumns=19
nRows=28
DataType=double
version=2
endheader
time	ground_force_1_vx	ground_force_1_vy	ground_force_1_vz	ground_force_1_px	ground_force_1_py	ground_force_1_pz	ground_moment_1_mx	ground_moment_1_my	ground_moment_1_mz	ground_force_2_vx	ground_force_2_vy	ground_force_2_vz	ground_force_2_px	ground_force_2_py	ground_force_2_pz	ground_moment_2_mx	ground_moment_2_my	ground_moment_2_mz
5.05	-37.02706667627317	356.010926301288	17.63172381839327	0.1477245894404737	0.005867114253426692	0.1779642827409022	0.01987874957046078	2.373811117456464	0.009055314437607017	0	0	0	0.8952113342285156	0.002086591646075249	0.2021185622215271	0	0	0
5.051	-37.55096430758935	358.204468953213	16.99802724471406	0.1480160729898345	0.005864248284481759	0.1780757024457688	0.0209059368662972	2.496472183934702	0.009523226361198822	0	0	0	0.8952113342285156	0.002086591646075249	0.2021185622215271	0	0	0
5.052	-38.07485813068249	360.3980115769812	16.36432969223228	0.1483075412812699	0.005861382442925775	0.178187122251259	0.02193312620652749	2.61913349454323	0.009991139216067977	0	0	0	0.8952113342285156	0.002086591646075249	0.2021185622215271	0	0	0
5.053	-38.59875576825701	362.5915542325965	15.73063216490642	0.1485990248306308	0.005858516473980842	0.1782985419561256	0.02296031350236391	2.741794561021468	0.01045905113965978	0	0	0	0.8952113342285156	0.002086591646075249	0.2021185622215271	0	0	0
5.054	-39.12264959135016	364.7850968563646	15.09693461242465	0.1488905236379171	0.005855650377646962	0.1784099615603685	0.02398750284259419	2.864455871629996	0.01092696399452894	0	0	0	0.8952113342285156	0.002086591646075249	0.2021185622215271	0	0	0
5.055	-39.64648870577821	366.978241810971	14.46335914334184	0.1491819152955162	0.005852785375999971	0.1785213294184118	0.025014508187377	2.987095210512523	0.01139479303443649	0	0	0	0.8952113342285156	0.002086591646075249	0.2021185622215271	0	0	0
5.056	-39.86130223478138	367.0236461183103	14.4649445631183	0.149019759783344	0.005854765628397814	0.1783581880554465	0.02508831285014734	2.995908558071601	0.01142841307809055	0	0	0	0.8952113342285156	0.002086591646075249	0.2021185622215271	0	0	0
5.057	-40.07611576378454	367.0690504256495	14.46652998289475	0.1488576042899468	0.005856745869724882	0.178195049553421	0.02516211751291767	3.00472190563068	0.0114620331217446	0	0	0	0.8952113342285156	0.002086591646075249	0.2021185622215271	0	0	0
5.058	-40.29092929278771	367.1144547329887	14.46811540267121	0.148695479299884	0.00585872586365457	0.1780319089428549	0.02523592217568801	3.013535253189759	0.01149565316539866	0	0	0	0.8952113342285156	0.002086591646075249	0.2021185622215271	0	0	0
5.059	-40.50574689182147	367.159828555889	14.46970073119391	0.1485333237814535	0.005860706119742673	0.177868766626243	0.02530972683845835	3.022348600748836	0.01152927320905272	0	0	0	0.8952113342285156	0.002086591646075249	0.2021185622215271	0	0	0
5.06	-40.72050701808539	367.2052324173669	14.47128579878754	0.1483712143246832	0.005862685823912012	0.1777056678755054	0.02538351310168394	3.031159751135315	0.01156288487121061	0	0	0	0.8952113342285156	0.002086591646075249	0.2021185622215271	0	0	0
5.061	-41.78662115225357	367.617616225286	15.44825077558685	0.1485909153019111	0.005861373608832285	0.1775673590436494	0.02459677718979071	2.937212068584419	0.01120450513327493	0	0	0	0.8952113342285156	0.002086591646075249	0.2021185622215271	0	0	0
5.062	-42.85278425614654	368.0300307494701	16.42527150732795	0.1488106620529156	0.005860061011585717	0.1774290499099224	0.02380999016805095	2.843258282776301	0.01084610211340548	0	0	0	0.8952113342285156	0.002086591646075249	0.2021185622215271	0	0	0
5.063	-43.91894736003952	368.4424452736544	17.40229223906904	0.1490303935459946	0.005858748541728096	0.177290740876819	0.02302320723509892	2.749304985228761	0.01048770095609072	0	0	0	0.8952113342285156	0.002086591646075249	0.2021185622215271	0	0	0
5.064	-44.98511045767415	368.8548597941484	18.37931392445678	0.1492501250515902	0.005857436064489956	0.177152433751009	0.02223642021335917	2.655351199420644	0.01012929793622127	0	0	0	0.8952113342285156	0.002086591646075249	0.2021185622215271	0	0	0
5.065	-46.05127356782548	369.2672743220228	19.35633370255124	0.1494698565446692	0.005856123594632335	0.1770141247179056	0.02144963523601328	2.561397657742815	0.009770895847629161	0	0	0	0.8952113342285156	0.002086591646075249	0.2021185622215271	0	0	0
5.066	-47.45115519829279	369.6463942218999	18.72145526499973	0.1498854871700765	0.005851728298331501	0.1772539160716027	0.02260966724492736	2.699922310392874	0.01029932217349904	0	0	0	0.8952113342285156	0.002086591646075249	0.2021185622215271	0	0	0
5.067	-48.8510529430357	370.0254840871448	18.08648526158463	0.1503011179331673	0.005847332920844967	0.1774937284055259	0.02376980760671606	2.838459901948244	0.01082779785706852	0	0	0	0.8952113342285156	0.002086591646075249	0.2021185622215271	0	0	0
5.068000000000001	-50.25095043222937	370.4046044686756	17.45151537457919	0.1507167486962581	0.005842937543358433	0.177733540739449	0.02492995205729249	2.976997981764193	0.01135627540319271	0	0	0	0.8952113342285156	0.002086591646075249	0.2021185622215271	0	0	0
5.069	-51.65085199145365	370.7836943657677	16.81654539632001	0.151132379459349	0.005838542165871899	0.1779733530733722	0.02609009241908119	3.115535573319563	0.0118847510867622	0	0	0	0.8952113342285156	0.002086591646075249	0.2021185622215271	0	0	0
5.07	-53.05103210899458	371.1628173143389	16.18152301299376	0.1515480712416251	0.00583414628621009	0.1782131630975075	0.02725032273419977	3.254083906607645	0.01241326774653513	0	0	0	0.8952113342285156	0.002086591646075249	0.2021185622215271	0	0	0
5.071	-54.23488314367378	371.2205374318966	16.08190828630261	0.1517332985185429	0.005833018973999726	0.1781020614454785	0.02738329624409066	3.269962872987665	0.01247384081928632	0	0	0	0.8952113342285156	0.002086591646075249	0.2021185622215271	0	0	0
5.072	-55.41873035761326	371.2782575139167	15.98229448810218	0.1519185563113118	0.005831891407011465	0.1779909595922023	0.02751626770958769	3.285841595237397	0.01253441296076016	0	0	0	0.8952113342285156	0.002086591646075249	0.2021185622215271	0	0	0
5.073	-56.6025813860341	371.335977627784	15.88268071505767	0.1521037835882296	0.0058307640948011	0.1778798579401734	0.02764924121947858	3.301720561617418	0.01259498603351136	0	0	0	0.8952113342285156	0.002086591646075249	0.2021185622215271	0	0	0
5.074	-57.78642859997357	371.3936977098041	15.78306691685724	0.1522890261355896	0.005829636647821269	0.1777687580948141	0.02778221268497561	3.31759928386715	0.0126555581749852	0	0	0	0.8952113342285156	0.002086591646075249	0.2021185622215271	0	0	0
5.075	-58.96999778235938	371.4516895032931	15.68361828963353	0.152474298986017	0.005828509071532353	0.1776576256242217	0.02791502059896377	3.333458475693771	0.01271605581427095	0	0	0	0.8952113342285156	0.002086591646075249	0.2021185622215271	0	0	0
5.076000000000001	-58.52033923431918	373.0745792872115	16.54778358481763	0.1529157339876629	0.00582592757810802	0.177365289220304	0.02708956591174001	3.234887209601661	0.01234003861458174	0	0	0	0.8952113342285156	0.002086591646075249	0.2021185622215271	0	0	0
5.077	-58.07068449450201	374.6974690992869	17.4119498588043	0.1533571689642754	0.005823346099444725	0.1770729490017998	0.02626411326891011	3.13631618763984	0.01196402234616988	0	0	0	0.8952113342285156	0.002086591646075249	0.2021185622215271	0	0	0
